<mxfile host="app.diagrams.net" modified="2023-07-24T10:25:25.180Z" agent="Mozilla/5.0 (Windows NT 10.0; Win64; x64) AppleWebKit/537.36 (KHTML, like Gecko) Chrome/115.0.0.0 Safari/537.36" version="21.6.5" etag="90Jj9Z-e8rM3xsRW07wF" type="github">
  <diagram name="Страница 1" id="9IuZvNYRoDw_cZlBoTu7">
    <mxGraphModel>
      <root>
        <mxCell id="0" />
        <mxCell id="1" parent="0" />
      </root>
    </mxGraphModel>
  </diagram>
</mxfile>
